<svg xmlns="http://www.w3.org/2000/svg" width="29.246" height="33.855" viewBox="0 0 29.246 33.855"><g transform="translate(-345.04 -424)"><path d="M7.556,0,0,13.929l6.861-.62,3.321,5.908L17.738,5.288Z" transform="translate(345.04 438.637)" fill="#006639"/><g transform="translate(351.22 438.62)"><path d="M2.179,12.9a.935.935,0,0,0-.453-1.209l-.435-.227a.9.9,0,0,1-.363-1.217A.942.942,0,0,1,2.186,9.87l1.229.638a.784.784,0,0,0,1.051-.32l.03-.057A.71.71,0,0,0,4.214,9.12L.538,7.211A.938.938,0,0,1,.079,6,.942.942,0,0,1,1.36,5.582L4.77,7.353a.793.793,0,0,0,1.057-.318l.019-.049.005-.011a.79.79,0,0,0-.336-1.087L3.6,4.9a.938.938,0,0,1-.455-1.215.945.945,0,0,1,1.281-.419l2.113,1.1A.8.8,0,0,0,7.612,4a446.929,446.929,0,0,0,.011-.021.762.762,0,0,0-.3-1.067L5.044,1.732A.936.936,0,0,1,4.59.526.942.942,0,0,1,5.871.107l5.623,2.92L3.938,16.956l-2.082-3.7A.873.873,0,0,0,2.179,12.9Z" transform="translate(0.062 2.278)" fill="#169a5a"/><path d="M10.182,0l7.556,13.929-6.861-.62L7.556,19.218,0,5.288Z" transform="translate(5.328 0.016)" fill="#169a5a"/></g><path d="M9.316,12.9a.935.935,0,0,1,.453-1.209l.435-.227a.9.9,0,0,0,.363-1.217.942.942,0,0,0-1.258-.378l-1.229.638a.784.784,0,0,1-1.051-.32L7,10.13a.71.71,0,0,1,.282-1.012l3.677-1.909a.913.913,0,1,0-.822-1.629L6.726,7.351a.793.793,0,0,1-1.057-.318L5.65,6.985l-.005-.011a.79.79,0,0,1,.336-1.087l1.912-.993a.938.938,0,0,0,.455-1.215A.945.945,0,0,0,7.068,3.26L4.953,4.36A.8.8,0,0,1,3.882,4a1302.366,1302.366,0,0,0-.011-.021.762.762,0,0,1,.3-1.067L6.45,1.732A.936.936,0,0,0,6.9.526.942.942,0,0,0,5.623.107L0,3.027,7.556,16.956l2.082-3.7A.888.888,0,0,1,9.316,12.9Z" transform="translate(356.549 440.899)" fill="#006639"/><ellipse cx="12.625" cy="12.353" rx="12.625" ry="12.353" transform="translate(347.038 424)" fill="#ea8d43"/><path d="M14.3,10.009h-8A1.125,1.125,0,0,1,5.167,8.9l.009-.076V8.808A1.17,1.17,0,0,1,6.361,7.64h5.545a1.392,1.392,0,0,0,1.427-1.252A1.34,1.34,0,0,0,11.983,5H6.11A1.13,1.13,0,0,1,4.986,3.833V3.8A1.13,1.13,0,0,1,6.11,2.631h6.146a1.389,1.389,0,0,0,1.418-1.244A1.335,1.335,0,0,0,12.325,0h-4.5A12.362,12.362,0,0,0,0,11.426,12.355,12.355,0,0,0,7.825,22.849H13.54a1.389,1.389,0,0,0,1.418-1.244,1.334,1.334,0,0,0-1.349-1.387h-6.5A1.329,1.329,0,0,1,5.765,18.83a1.386,1.386,0,0,1,1.419-1.246H9.7a1.318,1.318,0,1,0-.039-2.636H5.845a1.111,1.111,0,0,1-1.124-1.108v-.093a1.051,1.051,0,0,1,1.063-1.108h8.439A1.391,1.391,0,0,0,15.649,11.4,1.335,1.335,0,0,0,14.3,10.009Z" transform="translate(347.075 424.927)" fill="#d37b35"/><path d="M9.012,17.635A8.927,8.927,0,0,1,0,8.817,8.926,8.926,0,0,1,9.012,0a8.927,8.927,0,0,1,9.012,8.818A8.926,8.926,0,0,1,9.012,17.635Z" transform="translate(350.651 427.535)" fill="#fab278"/><text transform="translate(355.962 428.702)" fill="#656565" font-size="12" font-family="SegoeUI, Segoe UI"><tspan x="0" y="13">3</tspan></text><g transform="translate(351.828 429.689)"><path d="M3.478,10.1a1.139,1.139,0,0,0-.291.435,1.185,1.185,0,0,0-.1.517c.013.189.092.4.1.585,0,.024,0,.048,0,.071a8.817,8.817,0,0,1-.93-1.487.849.849,0,0,1,.062-.292,3.164,3.164,0,0,1,.28-.405,1.509,1.509,0,0,0,.16-.459A1.821,1.821,0,0,0,2.8,8.543l-.047-.03a1.2,1.2,0,0,0-.573.777c-.028.175,0,.381-.031.551a.931.931,0,0,1-.029.093,8.816,8.816,0,0,1-.544-1.6.855.855,0,0,1,.135-.315,2.872,2.872,0,0,1,.35-.3,1.3,1.3,0,0,0,.242-.385,1.573,1.573,0,0,0,.138-.479l-.039-.038a.992.992,0,0,0-.414.219.985.985,0,0,0-.281.364c-.062.153-.076.35-.141.5A.76.76,0,0,1,1.507,8a8.834,8.834,0,0,1-.164-1.644.847.847,0,0,1,.222-.327,2.709,2.709,0,0,1,.388-.2,1.13,1.13,0,0,0,.3-.3,1.444,1.444,0,0,0,.219-.423l-.029-.047a.894.894,0,0,0-.429.108.874.874,0,0,0-.332.276c-.088.13-.137.311-.227.434a.678.678,0,0,1-.1.109,9,9,0,0,1,.2-1.608l.016-.024a.836.836,0,0,1,.307-.3,2.479,2.479,0,0,1,.4-.09.96.96,0,0,0,.336-.22,1.356,1.356,0,0,0,.283-.36c-.006-.017-.012-.035-.018-.053a.8.8,0,0,0-.416,0,.779.779,0,0,0-.36.186c-.106.1-.188.267-.3.36a.647.647,0,0,1-.15.1,8.972,8.972,0,0,1,.579-1.549l.014.018.063-.062a.762.762,0,0,1,.343-.219,2.265,2.265,0,0,1,.379.007.843.843,0,0,0,.353-.138,1.3,1.3,0,0,0,.336-.292c0-.019,0-.038,0-.056a.7.7,0,0,0-.379-.093.686.686,0,0,0-.368.1c-.119.078-.229.217-.346.283a.558.558,0,0,1-.178.068c0-.012,0-.022,0-.034A9.085,9.085,0,0,1,3.952,0,9.271,9.271,0,0,0,2.48,1.787c0-.019.01-.041.01-.06a2.4,2.4,0,0,0,0-.4,1.289,1.289,0,0,0-.3-.7L2.128.641a1.8,1.8,0,0,0-.257.936,1.4,1.4,0,0,0,.082.381.972.972,0,0,0,.175.333l.034.043a9,9,0,0,0-.583,1.334s0-.01,0-.015a3.671,3.671,0,0,0-.108-.416,1.558,1.558,0,0,0-.48-.678l-.054.035a1.935,1.935,0,0,0-.01,1.021A1.592,1.592,0,0,0,1.108,4a1.157,1.157,0,0,0,.263.313l.009.007a9.057,9.057,0,0,0-.251,1.378A3.412,3.412,0,0,0,.922,5.3a1.868,1.868,0,0,0-.654-.617l-.045.046A2.132,2.132,0,0,0,.476,5.786a1.852,1.852,0,0,0,.284.358,1.31,1.31,0,0,0,.321.252,9.155,9.155,0,0,0,.067,1.376A3.986,3.986,0,0,0,.856,7.43a2.265,2.265,0,0,0-.821-.518L0,6.967A2.351,2.351,0,0,0,.532,8a2.066,2.066,0,0,0,.384.312,1.4,1.4,0,0,0,.353.176,9.147,9.147,0,0,0,.379,1.322c-.122-.1-.242-.193-.369-.274A2.657,2.657,0,0,0,.3,9.159c-.008.02-.014.04-.022.06a2.638,2.638,0,0,0,.816.953,2.372,2.372,0,0,0,.479.243,1.568,1.568,0,0,0,.367.1,9.167,9.167,0,0,0,.686,1.215c-.145-.068-.289-.14-.434-.193a3.211,3.211,0,0,0-1.113-.2l-.006.066a2.992,2.992,0,0,0,1.1.808,2.762,2.762,0,0,0,.567.151,1.785,1.785,0,0,0,.367.023,9.588,9.588,0,0,0,.657.737l.371-.363a9.212,9.212,0,0,1-.751-.8.931.931,0,0,1,0-.262,3.126,3.126,0,0,1,.175-.494,1.8,1.8,0,0,0,.049-.52,2.106,2.106,0,0,0-.076-.556A.427.427,0,0,0,3.478,10.1Z" transform="translate(0.015 0.051)" fill="#656565"/><path d="M.654,10.1a1.139,1.139,0,0,1,.291.435,1.185,1.185,0,0,1,.1.517c-.013.189-.092.4-.1.585,0,.024,0,.048,0,.071a8.817,8.817,0,0,0,.93-1.487.849.849,0,0,0-.062-.292,3.164,3.164,0,0,0-.28-.405,1.509,1.509,0,0,1-.16-.459,1.821,1.821,0,0,1-.042-.525l.047-.03a1.086,1.086,0,0,1,.37.33,1.089,1.089,0,0,1,.2.447c.028.175,0,.381.031.551a.931.931,0,0,0,.029.093,8.816,8.816,0,0,0,.544-1.6.855.855,0,0,0-.135-.315,2.872,2.872,0,0,0-.35-.3,1.3,1.3,0,0,1-.242-.385,1.573,1.573,0,0,1-.138-.479l.039-.038a.992.992,0,0,1,.414.219.985.985,0,0,1,.281.364c.062.153.076.35.141.5A.76.76,0,0,0,2.625,8,8.834,8.834,0,0,0,2.79,6.354a.847.847,0,0,0-.222-.327,2.709,2.709,0,0,0-.388-.2,1.13,1.13,0,0,1-.3-.3A1.444,1.444,0,0,1,1.66,5.1l.029-.047a.894.894,0,0,1,.429.108.874.874,0,0,1,.332.276c.088.13.137.311.227.434a.678.678,0,0,0,.1.109,9,9,0,0,0-.2-1.608l-.016-.024a.836.836,0,0,0-.307-.3,2.479,2.479,0,0,0-.4-.09.96.96,0,0,1-.336-.22,1.356,1.356,0,0,1-.283-.36c.006-.017.012-.035.018-.053a.8.8,0,0,1,.416,0,.779.779,0,0,1,.36.186c.106.1.188.267.3.36a.647.647,0,0,0,.15.1A8.724,8.724,0,0,0,1.9,2.426l-.014.018-.063-.062a.762.762,0,0,0-.343-.219A2.265,2.265,0,0,0,1.1,2.17a.843.843,0,0,1-.353-.138A1.3,1.3,0,0,1,.415,1.74c0-.019,0-.038,0-.056A.7.7,0,0,1,.8,1.591a.686.686,0,0,1,.368.1c.119.078.229.217.346.283a.558.558,0,0,0,.178.068c0-.011,0-.022,0-.033A9.085,9.085,0,0,0,.183,0,9.271,9.271,0,0,1,1.654,1.787c0-.019-.01-.041-.01-.06a2.4,2.4,0,0,1,0-.4,1.289,1.289,0,0,1,.3-.7l.062.022a1.8,1.8,0,0,1,.257.936,1.4,1.4,0,0,1-.082.381.972.972,0,0,1-.175.333l-.034.043a9,9,0,0,1,.583,1.334s0-.01,0-.015a3.2,3.2,0,0,1,.106-.418,1.558,1.558,0,0,1,.48-.678l.055.034a1.947,1.947,0,0,1,.011,1.021,1.592,1.592,0,0,1-.183.38,1.157,1.157,0,0,1-.263.313l-.009.007a9.057,9.057,0,0,1,.251,1.378A3.412,3.412,0,0,1,3.213,5.3a1.868,1.868,0,0,1,.654-.617l.045.044a2.132,2.132,0,0,1-.254,1.056,1.852,1.852,0,0,1-.284.358,1.31,1.31,0,0,1-.321.252,9.155,9.155,0,0,1-.067,1.376,3.986,3.986,0,0,1,.293-.341A2.265,2.265,0,0,1,4.1,6.909l.035.054A2.351,2.351,0,0,1,3.6,8a2.066,2.066,0,0,1-.384.312,1.4,1.4,0,0,1-.353.176,9.147,9.147,0,0,1-.379,1.322c.122-.1.242-.193.369-.274a2.657,2.657,0,0,1,.977-.378c.008.02.014.04.022.06a2.638,2.638,0,0,1-.816.953,2.372,2.372,0,0,1-.479.243,1.568,1.568,0,0,1-.367.1,9.167,9.167,0,0,1-.686,1.215c.145-.068.289-.14.434-.193a3.211,3.211,0,0,1,1.113-.2l.006.066a2.992,2.992,0,0,1-1.1.808,2.762,2.762,0,0,1-.567.151,1.785,1.785,0,0,1-.367.023,9.588,9.588,0,0,1-.657.737L0,12.752a9.212,9.212,0,0,0,.751-.8.931.931,0,0,0,0-.263A3.126,3.126,0,0,0,.579,11.2a1.8,1.8,0,0,1-.049-.52,2.106,2.106,0,0,1,.076-.556Z" transform="translate(11.522 0.053)" fill="#656565"/></g></g></svg>