<svg xmlns="http://www.w3.org/2000/svg" width="29.246" height="34.984" viewBox="0 0 29.246 34.984"><g transform="translate(-345.04 -326)"><path d="M7.556,0,0,14.394l6.861-.641,3.321,6.105L17.738,5.464Z" transform="translate(345.04 341.124)" fill="#e95454"/><path d="M2.179,13.33a.98.98,0,0,0-.453-1.249l-.435-.234a.947.947,0,0,1-.363-1.258.927.927,0,0,1,1.258-.39l1.229.66a.771.771,0,0,0,1.051-.33l.03-.059a.746.746,0,0,0-.282-1.046L.538,7.451A.983.983,0,0,1,.079,6.2.928.928,0,0,1,1.36,5.768L4.77,7.6A.78.78,0,0,0,5.827,7.27l.019-.05.005-.011a.83.83,0,0,0-.336-1.123L3.6,5.059A.983.983,0,0,1,3.147,3.8a.931.931,0,0,1,1.281-.433L6.541,4.5a.785.785,0,0,0,1.071-.367,689.039,689.039,0,0,0,.011-.022.8.8,0,0,0-.3-1.1L5.044,1.79A.981.981,0,0,1,4.59.543.928.928,0,0,1,5.871.11l5.623,3.018L3.938,17.522,1.856,13.695A.892.892,0,0,0,2.179,13.33Z" transform="translate(351.282 343.461)" fill="#ed6362"/><path d="M10.182,0l7.556,14.394-6.861-.641L7.556,19.858,0,5.464Z" transform="translate(356.547 341.124)" fill="#ed6362"/><path d="M9.316,13.329a.98.98,0,0,1,.453-1.249l.435-.234a.947.947,0,0,0,.363-1.258.927.927,0,0,0-1.258-.39l-1.229.66a.771.771,0,0,1-1.051-.33L7,10.468a.746.746,0,0,1,.282-1.046l3.677-1.973a.983.983,0,0,0,.459-1.25.928.928,0,0,0-1.281-.433L6.726,7.6a.78.78,0,0,1-1.057-.328l-.019-.05-.005-.011a.83.83,0,0,1,.336-1.123L7.893,5.057A.983.983,0,0,0,8.349,3.8a.931.931,0,0,0-1.281-.433L4.953,4.5a.785.785,0,0,1-1.071-.367,704.365,704.365,0,0,0-.011-.022.8.8,0,0,1,.3-1.1L6.45,1.79A.981.981,0,0,0,6.9.543.928.928,0,0,0,5.623.11L0,3.128,7.556,17.522l2.082-3.827A.907.907,0,0,1,9.316,13.329Z" transform="translate(356.549 343.462)" fill="#e95454"/><ellipse cx="12.625" cy="12.765" rx="12.625" ry="12.765" transform="translate(347.038 326)" fill="#ffcc5b"/><path d="M14.3,10.342h-8A1.143,1.143,0,0,1,5.167,9.2l.009-.079V9.1A1.189,1.189,0,0,1,6.361,7.895h5.545A1.408,1.408,0,0,0,13.332,6.6a1.364,1.364,0,0,0-1.349-1.434H6.11A1.151,1.151,0,0,1,4.986,3.96V3.925A1.151,1.151,0,0,1,6.11,2.719h6.146a1.405,1.405,0,0,0,1.418-1.285A1.359,1.359,0,0,0,12.325,0h-4.5a12.818,12.818,0,0,0,0,23.611H13.54a1.405,1.405,0,0,0,1.418-1.285,1.358,1.358,0,0,0-1.349-1.433h-6.5a1.354,1.354,0,0,1-1.344-1.434A1.4,1.4,0,0,1,7.184,18.17H9.7a1.362,1.362,0,0,0-.039-2.723H5.845A1.13,1.13,0,0,1,4.721,14.3v-.1A1.071,1.071,0,0,1,5.784,13.06h8.439a1.408,1.408,0,0,0,1.427-1.285A1.36,1.36,0,0,0,14.3,10.342Z" transform="translate(347.075 326.958)" fill="#fdbc4b"/><path d="M9.012,18.223A9.112,9.112,0,0,1,9.012,0a9.112,9.112,0,0,1,0,18.223Z" transform="translate(350.651 329.653)" fill="#ffdb70"/><text transform="translate(355.846 332.125)" fill="#e95454" font-size="12" font-family="SegoeUI, Segoe UI"><tspan x="0" y="13">1</tspan></text><path d="M3.478,10.441a1.181,1.181,0,0,0-.291.45,1.26,1.26,0,0,0-.1.534c.013.2.092.411.1.6,0,.025,0,.049,0,.073a9.163,9.163,0,0,1-.93-1.537.9.9,0,0,1,.062-.3,3.275,3.275,0,0,1,.28-.419,1.594,1.594,0,0,0,.16-.475A1.942,1.942,0,0,0,2.8,8.828L2.757,8.8a1.1,1.1,0,0,0-.37.341,1.143,1.143,0,0,0-.2.462c-.028.18,0,.394-.031.57a.986.986,0,0,1-.029.1A9.32,9.32,0,0,1,1.579,8.61a.9.9,0,0,1,.135-.326,2.9,2.9,0,0,1,.35-.313,1.345,1.345,0,0,0,.242-.4,1.667,1.667,0,0,0,.138-.5l-.039-.039a.982.982,0,0,0-.414.226,1.015,1.015,0,0,0-.281.376c-.062.159-.076.362-.141.515a.791.791,0,0,1-.064.11,9.423,9.423,0,0,1-.164-1.7.877.877,0,0,1,.222-.338,2.676,2.676,0,0,1,.388-.2,1.15,1.15,0,0,0,.3-.314,1.511,1.511,0,0,0,.219-.437l-.029-.048a.871.871,0,0,0-.429.112.882.882,0,0,0-.332.285c-.088.135-.137.322-.227.448a.692.692,0,0,1-.1.113,9.592,9.592,0,0,1,.2-1.661L1.57,4.5a.85.85,0,0,1,.307-.314,2.411,2.411,0,0,1,.4-.093.958.958,0,0,0,.336-.227,1.4,1.4,0,0,0,.283-.372c-.006-.017-.012-.036-.018-.055a.778.778,0,0,0-.416,0,.771.771,0,0,0-.36.192c-.106.108-.188.276-.3.372a.646.646,0,0,1-.15.1,9.468,9.468,0,0,1,.579-1.6l.014.019.063-.065a.759.759,0,0,1,.343-.226,2.192,2.192,0,0,1,.379.008A.827.827,0,0,0,3.383,2.1a1.317,1.317,0,0,0,.336-.3c0-.02,0-.039,0-.058a.677.677,0,0,0-.379-.1.669.669,0,0,0-.368.1c-.119.081-.229.224-.346.292a.547.547,0,0,1-.178.07c0-.012,0-.023,0-.035A9.37,9.37,0,0,1,3.952,0,9.521,9.521,0,0,0,2.48,1.846c0-.02.01-.043.01-.062a2.56,2.56,0,0,0,0-.417,1.354,1.354,0,0,0-.3-.727L2.128.663a1.907,1.907,0,0,0-.257.967,1.488,1.488,0,0,0,.082.394,1.016,1.016,0,0,0,.175.345l.034.045a9.467,9.467,0,0,0-.583,1.378s0-.01,0-.015a3.9,3.9,0,0,0-.108-.43,1.611,1.611,0,0,0-.48-.7l-.054.036a2.064,2.064,0,0,0-.01,1.055,1.669,1.669,0,0,0,.183.393,1.187,1.187,0,0,0,.263.324l.009.008a9.64,9.64,0,0,0-.251,1.424,3.568,3.568,0,0,0-.207-.407A1.9,1.9,0,0,0,.267,4.84l-.045.047A2.262,2.262,0,0,0,.476,5.978a1.905,1.905,0,0,0,.284.37,1.317,1.317,0,0,0,.321.26A9.772,9.772,0,0,0,1.149,8.03a4.085,4.085,0,0,0-.293-.352,2.257,2.257,0,0,0-.821-.535L0,7.2A2.457,2.457,0,0,0,.532,8.268a2.081,2.081,0,0,0,.384.323,1.385,1.385,0,0,0,.353.182,9.7,9.7,0,0,0,.379,1.366c-.122-.1-.242-.2-.369-.283A2.607,2.607,0,0,0,.3,9.464c-.008.021-.014.042-.022.062a2.7,2.7,0,0,0,.816.984,2.344,2.344,0,0,0,.479.252,1.528,1.528,0,0,0,.367.1,9.564,9.564,0,0,0,.686,1.256c-.145-.07-.289-.144-.434-.2a3.119,3.119,0,0,0-1.113-.208l-.006.068a3,3,0,0,0,1.1.835,2.691,2.691,0,0,0,.567.156,1.728,1.728,0,0,0,.367.024,9.809,9.809,0,0,0,.657.761l.371-.375a9.4,9.4,0,0,1-.751-.826.994.994,0,0,1,0-.271,3.3,3.3,0,0,1,.175-.511,1.923,1.923,0,0,0,.049-.537,2.244,2.244,0,0,0-.076-.574A.42.42,0,0,0,3.478,10.441Z" transform="translate(351.843 331.931)" fill="#ed6362"/><path d="M.654,10.439a1.181,1.181,0,0,1,.291.45,1.26,1.26,0,0,1,.1.534c-.013.2-.092.411-.1.6,0,.025,0,.049,0,.073a9.163,9.163,0,0,0,.93-1.537.9.9,0,0,0-.062-.3,3.275,3.275,0,0,0-.28-.419,1.594,1.594,0,0,1-.16-.475,1.942,1.942,0,0,1-.042-.542l.047-.031a1.1,1.1,0,0,1,.37.341,1.143,1.143,0,0,1,.2.462c.028.18,0,.394.031.57a.986.986,0,0,0,.029.1,9.32,9.32,0,0,0,.544-1.656.9.9,0,0,0-.135-.326,2.9,2.9,0,0,0-.35-.313,1.345,1.345,0,0,1-.242-.4,1.667,1.667,0,0,1-.138-.5l.039-.039a.982.982,0,0,1,.414.226,1.015,1.015,0,0,1,.281.376c.062.159.076.362.141.515a.791.791,0,0,0,.064.11,9.423,9.423,0,0,0,.164-1.7.877.877,0,0,0-.222-.338,2.676,2.676,0,0,0-.388-.2,1.15,1.15,0,0,1-.3-.314,1.511,1.511,0,0,1-.219-.437l.029-.048a.871.871,0,0,1,.429.112.882.882,0,0,1,.332.285c.088.135.137.322.227.448a.691.691,0,0,0,.1.113,9.592,9.592,0,0,0-.2-1.661L2.563,4.5a.85.85,0,0,0-.307-.314,2.411,2.411,0,0,0-.4-.093.958.958,0,0,1-.336-.227,1.4,1.4,0,0,1-.283-.372c.006-.017.012-.036.018-.055a.778.778,0,0,1,.416,0,.771.771,0,0,1,.36.192c.106.108.188.276.3.372a.646.646,0,0,0,.15.1,9.207,9.207,0,0,0-.577-1.6l-.014.019-.063-.065a.759.759,0,0,0-.343-.226,2.192,2.192,0,0,0-.379.008A.827.827,0,0,1,.752,2.1a1.317,1.317,0,0,1-.336-.3c0-.02,0-.039,0-.058a.677.677,0,0,1,.379-.1.669.669,0,0,1,.368.1c.119.081.229.224.346.292a.547.547,0,0,0,.178.07c0-.011,0-.023,0-.034A9.37,9.37,0,0,0,.183,0,9.521,9.521,0,0,1,1.654,1.846c0-.02-.01-.043-.01-.062a2.56,2.56,0,0,1,0-.417,1.354,1.354,0,0,1,.3-.727l.062.023a1.907,1.907,0,0,1,.257.967,1.488,1.488,0,0,1-.082.394,1.016,1.016,0,0,1-.175.345l-.034.045a9.467,9.467,0,0,1,.583,1.378s0-.01,0-.015a3.4,3.4,0,0,1,.106-.432,1.611,1.611,0,0,1,.48-.7l.055.035a2.077,2.077,0,0,1,.011,1.055,1.669,1.669,0,0,1-.183.393,1.187,1.187,0,0,1-.263.324l-.009.008a9.64,9.64,0,0,1,.251,1.424,3.568,3.568,0,0,1,.207-.407,1.9,1.9,0,0,1,.654-.638l.045.046a2.262,2.262,0,0,1-.254,1.092,1.905,1.905,0,0,1-.284.37,1.317,1.317,0,0,1-.321.26,9.772,9.772,0,0,1-.067,1.422,4.085,4.085,0,0,1,.293-.352A2.257,2.257,0,0,1,4.1,7.139l.035.056A2.457,2.457,0,0,1,3.6,8.263a2.08,2.08,0,0,1-.384.323,1.385,1.385,0,0,1-.353.182,9.7,9.7,0,0,1-.379,1.366c.122-.1.242-.2.369-.283a2.607,2.607,0,0,1,.977-.39c.008.021.014.042.022.062a2.7,2.7,0,0,1-.816.984,2.344,2.344,0,0,1-.479.252,1.528,1.528,0,0,1-.367.1,9.564,9.564,0,0,1-.686,1.256c.145-.07.289-.144.434-.2a3.119,3.119,0,0,1,1.113-.208l.006.068a3,3,0,0,1-1.1.835,2.691,2.691,0,0,1-.567.156,1.728,1.728,0,0,1-.367.024,9.809,9.809,0,0,1-.657.761L0,13.177a9.4,9.4,0,0,0,.751-.826.994.994,0,0,0,0-.271,3.3,3.3,0,0,0-.175-.511,1.923,1.923,0,0,1-.049-.537,2.244,2.244,0,0,1,.076-.574Z" transform="translate(363.35 331.934)" fill="#ed6362"/></g></svg>