<svg xmlns="http://www.w3.org/2000/svg" width="20" height="20" viewBox="0 0 20 20"><rect width="20" height="20" fill="none"/><path d="M-5.007,20h0c2.412,0,4.214-.683,4.589-1.74A2.622,2.622,0,0,0-.7,15.725a2.972,2.972,0,0,1-.4-2.51C-.3,10.084.112,8.078-.026,6.441A5.991,5.991,0,0,0-2.543,2.1,1.609,1.609,0,0,1-3.215.907.816.816,0,0,0-3.87.1,1.3,1.3,0,0,0-4.315,0a.782.782,0,0,0-.565.287c-.033.031-.066.062-.1.092a1.5,1.5,0,0,1-1.1.379h-.058l-.246,0c-3.97,0-5.3,2.074-7.844,7.564a2.868,2.868,0,0,1-1.883,1.66,2.536,2.536,0,0,0-1.8,1.76c-.635,1.787,2.5,5.4,7.348,7.2A16.167,16.167,0,0,0-5.007,20Zm-8.869-8.529a16.157,16.157,0,0,1,5.542,1.184A15.438,15.438,0,0,1-3.162,15.6c1.027.953,1.358,1.741,1.231,2.1-.081.227-1.28.669-3.19.669a14.2,14.2,0,0,1-4.918-.914c-4.349-1.619-6.534-4.673-6.366-5.147C-16.268,11.919-15.524,11.47-13.876,11.47Zm8.286,5.346h0A2.725,2.725,0,0,0-3.739,16.2a16.215,16.215,0,0,0-4.9-2.7c-.277-.1-.561-.2-.869-.306l-.008.019a.215.215,0,0,0-.009.022c-.417,1.171.64,2.643,2.355,3.282A4.573,4.573,0,0,0-5.591,16.817Z" transform="translate(19)" fill="#2b3034" opacity="0.4"/></svg>